<?xml version="1.0" encoding="UTF-8"?>
<svg width="96.748pt" height="54.136pt" version="1.1" viewBox="0 0 96.748 54.136" xmlns="http://www.w3.org/2000/svg" xmlns:xlink="http://www.w3.org/1999/xlink">
 <defs>
  <clipPath id="y">
   <path d="m0 0h96.746v54.137h-96.746z"/>
  </clipPath>
  <clipPath id="t">
   <path d="m0 0h96.746v54.137h-96.746z"/>
  </clipPath>
  <filter id="a" x="0%" y="0%" width="100%" height="100%">
   <feColorMatrix in="SourceGraphic" values="0 0 0 0 1 0 0 0 0 1 0 0 0 0 1 0 0 0 1 0"/>
  </filter>
  <mask id="l">
   <g filter="url(#a)">
    <rect width="96.748" height="54.136" fill-opacity=".39999"/>
   </g>
  </mask>
  <clipPath id="s">
   <rect width="97" height="55"/>
  </clipPath>
  <g id="c" clip-path="url(#s)">
   <path d="m86.621 26.754h-7.8984v12.438h7.9727v-1.875h-5.5742v-3.6562h3.9062v-1.8789h-3.9062v-3.1523h5.5z" fill="#fff"/>
  </g>
  <clipPath id="r">
   <path d="m0 0h96.746v54.137h-96.746z"/>
  </clipPath>
  <clipPath id="p">
   <path d="m0 0h96.746v54.137h-96.746z"/>
  </clipPath>
  <mask id="k">
   <g filter="url(#a)">
    <rect width="97" height="55" fill-opacity=".39999"/>
   </g>
  </mask>
  <clipPath id="o">
   <rect width="97" height="55"/>
  </clipPath>
  <g id="b" clip-path="url(#o)">
   <path d="m27.852 37.316v-3.5117h1.1797c2.1953 0.015624 2.9102 0.66406 2.9102 1.6914 0 1.2812-0.9375 1.8203-2.7578 1.8203zm0-5.2461v-3.4414h0.71094c1.8945 0 2.6641 0.55859 2.6641 1.6758 0 1.0273-0.73047 1.7305-2.2695 1.75zm1.0117-5.3164h-3.4141v12.441h3.8438c3.6211 0 5.1055-1.4609 5.1055-3.6992 0-1.2227-0.67578-2.1992-2.082-2.7578 0.80469-0.62891 1.3672-1.5117 1.3672-2.6484 0-1.8398-1.293-3.3359-4.8203-3.3359" fill="#fff"/>
  </g>
  <clipPath id="q">
   <rect width="97" height="55"/>
  </clipPath>
  <g id="h" clip-path="url(#q)">
   <g clip-path="url(#p)">
    <use mask="url(#k)" xlink:href="#b"/>
   </g>
  </g>
  <clipPath id="m">
   <path d="m0 0h96.746v54.137h-96.746z"/>
  </clipPath>
  <mask id="j">
   <g filter="url(#a)">
    <rect width="97" height="55" fill-opacity=".39999"/>
   </g>
  </mask>
  <clipPath id="x">
   <rect width="97" height="55"/>
  </clipPath>
  <g id="g" clip-path="url(#x)">
   <path d="m64.672 37.316v-8.6523h1.3516c2.9844 0 4.4258 1.5859 4.4258 4.3125 0 2.4844-1.5547 4.3398-4.7266 4.3398zm1.3711-10.562h-3.7695v12.441h3.5039c4.4492 0 7.1484-2.6523 7.1484-6.2188 0-3.8984-2.5117-6.2227-6.8828-6.2227" fill="#fff"/>
  </g>
  <clipPath id="n">
   <rect width="97" height="55"/>
  </clipPath>
  <g id="f" clip-path="url(#n)">
   <g clip-path="url(#m)">
    <use mask="url(#j)" xlink:href="#g"/>
   </g>
  </g>
  <clipPath id="v">
   <path d="m0 0h96.746v54.137h-96.746z"/>
  </clipPath>
  <mask id="i">
   <g filter="url(#a)">
    <rect width="97" height="55" fill-opacity=".39999"/>
   </g>
  </mask>
  <clipPath id="u">
   <rect width="97" height="55"/>
  </clipPath>
  <g id="e" clip-path="url(#u)">
   <path d="m12.441 34.938 1.8945-4.957 1.8203 4.957zm2.7969-8.1836h-1.6719l-5.1602 12.438h2.4219l0.90234-2.3789h5.1211l0.88281 2.3789h2.6445z" fill="#fff"/>
  </g>
  <clipPath id="w">
   <rect width="97" height="55"/>
  </clipPath>
  <g id="d" clip-path="url(#w)">
   <g clip-path="url(#v)">
    <use mask="url(#i)" xlink:href="#e"/>
   </g>
  </g>
 </defs>
 <g clip-path="url(#y)">
  <path d="m47.742 54.137c-2.3789 0-4.707-0.59375-6.7656-1.7227h-28.582c-6.832 0-12.395-5.5586-12.395-12.395v-27.625c0-6.832 5.5625-12.395 12.395-12.395h71.957c6.8359 0 12.395 5.5625 12.395 12.395v27.625c0 6.8359-5.5586 12.395-12.395 12.395h-28.629c-2.0586 1.1289-4.3828 1.7227-6.7656 1.7227z" fill="#6f6c6d"/>
 </g>
 <path d="m84.352 1.6992h-71.953c-5.9023 0-10.699 4.8008-10.699 10.695v27.625c0 5.8984 4.7969 10.695 10.699 10.695h29.031c1.8242 1.0859 3.9883 1.7227 6.3125 1.7227h1.2188c2.3203 0 4.4883-0.63672 6.3125-1.7227h29.078c5.8984 0 10.699-4.7969 10.699-10.695v-27.625c0-5.8945-4.8008-10.695-10.699-10.695" fill="#fff"/>
 <path d="m84.352 46.906h-10.25v-27.91h10.25c3.8047 0 6.8867 3.082 6.8867 6.8867v14.137c0 3.8008-3.082 6.8867-6.8867 6.8867" fill="#ee301f"/>
 <path d="m36.016 24.312c0-1.9336 0.55469-3.7461 1.5156-5.3164h-14.887v27.906h14.887c-0.96094-1.5703-1.5156-3.3789-1.5156-5.3086z" fill="#72c72b"/>
 <path d="m12.398 46.906h10.246v-27.91h-10.246c-3.8047 0-6.8906 3.082-6.8906 6.8867v14.137c0 3.8008 3.0859 6.8867 6.8906 6.8867" fill="#0d8949"/>
 <g clip-path="url(#t)">
  <use mask="url(#l)" xlink:href="#c"/>
 </g>
 <path d="m10.746 9.4258v3.8047h-1.5391v-6.6562h1.1992l3.1055 3.9102v-3.9102h1.5391v6.6562h-1.2383z" fill="#6f6c6d"/>
 <path d="m19.172 11.922c0.26562 0 0.48438-0.054687 0.66797-0.16797 0.17969-0.10938 0.32812-0.25 0.44141-0.43359 0.10938-0.18359 0.19141-0.39062 0.23828-0.625 0.046875-0.23437 0.070313-0.47266 0.070313-0.71484v-3.4023h1.5352v3.4023c0 0.46094-0.054688 0.89453-0.17188 1.293-0.11719 0.39844-0.29297 0.75-0.53516 1.0508-0.23828 0.30078-0.54688 0.53516-0.91797 0.70703s-0.8125 0.25781-1.3281 0.25781c-0.53125 0-0.98047-0.089843-1.3594-0.27344-0.37109-0.17969-0.67969-0.42188-0.91406-0.72656-0.23438-0.30469-0.40625-0.65625-0.51172-1.0547-0.10938-0.39844-0.16797-0.81641-0.16797-1.2539v-3.4023h1.5391v3.4023c0 0.25391 0.027344 0.49609 0.074219 0.73047 0.050781 0.23047 0.13281 0.4375 0.24609 0.62109 0.11328 0.17969 0.25781 0.32031 0.43359 0.42969 0.17969 0.10547 0.39844 0.16016 0.66406 0.16016" fill="#6f6c6d"/>
 <path d="m28.379 7.9258h-2.0234v5.3047h-1.5391v-5.3047h-2.0312v-1.3516h5.5938z" fill="#6f6c6d"/>
 <path d="m29.141 13.234v-6.6562h3c0.30859 0 0.60156 0.066406 0.86719 0.19531 0.26172 0.13281 0.49219 0.30469 0.6875 0.51562 0.19531 0.21094 0.34375 0.45313 0.45703 0.72266 0.10547 0.26562 0.16406 0.53906 0.16406 0.8125 0 0.20703-0.027344 0.40625-0.078125 0.59766s-0.12109 0.36719-0.21484 0.53906c-0.09375 0.16797-0.20703 0.32031-0.34375 0.45312-0.13281 0.13281-0.28516 0.25-0.45313 0.34375l1.5273 2.4766h-1.7344l-1.3398-2.1484h-1.0039v2.1484zm1.5352-3.4883h1.4062c0.17969 0 0.33984-0.085938 0.46875-0.25781 0.13281-0.17188 0.19922-0.39453 0.19922-0.66406 0-0.27344-0.078125-0.49219-0.22656-0.65234-0.15234-0.16406-0.3125-0.24609-0.48828-0.24609h-1.3594z" fill="#6f6c6d"/>
 <path d="m35.512 6.5781h1.5391v6.6523h-1.5391z" fill="#6f6c6d"/>
 <path d="m38.195 9.9805h2.8867v1.3516h-2.8867z" fill="#6f6c6d"/>
 <path d="m46.219 8.5273-0.20312-0.14453c-0.11328-0.066406-0.25391-0.13672-0.42188-0.21094-0.17188-0.078125-0.35547-0.14453-0.55469-0.19922-0.20312-0.054687-0.40234-0.085937-0.60156-0.085937-0.26172 0-0.46484 0.050781-0.60547 0.14062-0.14062 0.09375-0.20703 0.23438-0.20703 0.41406l0.089844 0.28125c0.066406 0.074219 0.15234 0.14062 0.26953 0.20312 0.11719 0.058594 0.25781 0.11328 0.42969 0.16406 0.17188 0.046875 0.37109 0.10547 0.59766 0.16797 0.31641 0.085938 0.60547 0.18359 0.86328 0.28516 0.25391 0.10547 0.47266 0.23047 0.65234 0.38672 0.18359 0.15234 0.32422 0.33594 0.41797 0.55469 0.097657 0.21875 0.14844 0.48047 0.14844 0.78906 0 0.375-0.070312 0.69141-0.21484 0.94922-0.14062 0.26172-0.32422 0.46875-0.55859 0.62891-0.22656 0.16016-0.49609 0.27734-0.79687 0.34766-0.30469 0.070312-0.61719 0.10938-0.9375 0.10938-0.24219 0-0.48828-0.019532-0.74219-0.058594-0.25391-0.035156-0.5-0.089844-0.74609-0.16406-0.24219-0.070313-0.48047-0.15625-0.71094-0.25781-0.23438-0.097656-0.44531-0.21484-0.64062-0.34375l0.67578-1.3398c0.03125 0.027344 0.11719 0.089844 0.25391 0.17578 0.13672 0.085938 0.30469 0.17578 0.50781 0.26172 0.19922 0.089844 0.42578 0.16797 0.67188 0.23828 0.25391 0.0625 0.50391 0.10156 0.76172 0.10156 0.54297 0 0.81641-0.16797 0.81641-0.5 0-0.125-0.042969-0.22656-0.125-0.30859-0.082032-0.082031-0.19141-0.15625-0.33594-0.21875-0.14453-0.066406-0.3125-0.12891-0.50781-0.18359-0.19141-0.054688-0.40625-0.12109-0.63672-0.1875-0.30469-0.09375-0.57031-0.19531-0.79688-0.30469-0.22266-0.10938-0.41016-0.23438-0.5625-0.37891-0.14844-0.14453-0.25781-0.3125-0.33203-0.49609-0.070313-0.19141-0.10547-0.40625-0.10547-0.65625 0-0.35156 0.066406-0.66016 0.19531-0.92969 0.13281-0.26953 0.30859-0.49609 0.53516-0.67969 0.22266-0.18359 0.48438-0.32422 0.78125-0.41797s0.60938-0.14062 0.94141-0.14062c0.23828 0 0.46875 0.019531 0.69531 0.066407 0.22266 0.042968 0.4375 0.097656 0.64062 0.16797 0.20313 0.070313 0.39453 0.14844 0.57813 0.23438 0.17969 0.089844 0.34375 0.17578 0.48828 0.26172z" fill="#6f6c6d"/>
 <path d="m47.605 9.8477c0-0.39844 0.074219-0.79688 0.21875-1.1953 0.14453-0.39453 0.35156-0.75 0.625-1.0625 0.27734-0.31641 0.61328-0.56641 1.0117-0.76172 0.39453-0.19141 0.84766-0.28906 1.3516-0.28906 0.59375 0 1.1094 0.13281 1.5469 0.40234s0.76172 0.62109 0.97656 1.0508l-1.1836 0.82422c-0.066406-0.17578-0.15625-0.32031-0.26172-0.4375-0.10547-0.11328-0.22266-0.20703-0.34375-0.28125-0.12891-0.070312-0.25781-0.12109-0.39062-0.14844-0.13672-0.027344-0.26172-0.042969-0.38281-0.042969-0.27344 0-0.51172 0.0625-0.71094 0.17969s-0.36719 0.26953-0.49609 0.45703c-0.13281 0.19141-0.23047 0.40234-0.29688 0.64062-0.066406 0.23828-0.097656 0.47656-0.097656 0.72266 0 0.26172 0.039063 0.51172 0.11719 0.75781 0.078126 0.24219 0.1875 0.45703 0.32813 0.64844 0.14062 0.18359 0.3125 0.33594 0.51172 0.44141 0.19922 0.10938 0.42188 0.16797 0.66797 0.16797 0.12109 0 0.25391-0.019531 0.38672-0.054687 0.13281-0.03125 0.26172-0.085938 0.39062-0.15625 0.12109-0.070313 0.23438-0.16797 0.33594-0.28516 0.097656-0.11328 0.17969-0.25781 0.24219-0.42578l1.2656 0.74219c-0.097657 0.24219-0.24219 0.46094-0.43359 0.65625-0.19141 0.19531-0.41016 0.35547-0.65234 0.48828-0.24609 0.12891-0.5 0.23047-0.77344 0.29688-0.27344 0.070312-0.53906 0.10547-0.80078 0.10547-0.46094 0-0.88672-0.097656-1.2695-0.29687-0.38672-0.19531-0.71875-0.45703-0.99609-0.78125s-0.49609-0.69531-0.65234-1.1094c-0.15625-0.41016-0.23438-0.82812-0.23438-1.2539" fill="#6f6c6d"/>
 <path d="m56.926 13.289c-0.47656 0-0.90625-0.097656-1.293-0.28906-0.39062-0.19531-0.72266-0.44922-1-0.76562-0.27734-0.31641-0.49219-0.67969-0.64844-1.082-0.15234-0.40625-0.22656-0.82422-0.22656-1.2578 0-0.4375 0.078126-0.85938 0.23828-1.2656s0.38281-0.76172 0.66406-1.0742c0.28516-0.30859 0.625-0.55469 1.0117-0.73828 0.39062-0.1875 0.82031-0.27734 1.2812-0.27734 0.47266 0 0.90625 0.097657 1.293 0.28906 0.39062 0.19531 0.72266 0.45312 1 0.76953 0.27734 0.32031 0.49219 0.68359 0.64062 1.0898 0.15234 0.40625 0.22656 0.81641 0.22656 1.2344 0 0.44141-0.078125 0.85938-0.23828 1.2656-0.16016 0.41016-0.38281 0.76562-0.66016 1.0742-0.28516 0.3125-0.62109 0.55859-1.0078 0.74609-0.39453 0.1875-0.82031 0.28125-1.2812 0.28125m-1.6055-3.375c0 0.25781 0.039063 0.50391 0.10938 0.74609 0.070312 0.24219 0.17578 0.45312 0.30859 0.64062 0.13672 0.19141 0.30469 0.33594 0.50781 0.44922s0.43359 0.17188 0.69922 0.17188c0.26953 0 0.50391-0.0625 0.70313-0.17969 0.19922-0.12109 0.36328-0.27344 0.5-0.46484 0.13672-0.19141 0.23437-0.40625 0.30078-0.64844 0.0625-0.23828 0.097656-0.48438 0.097656-0.73438 0-0.25781-0.035156-0.50391-0.10547-0.74219-0.074218-0.24219-0.17969-0.45312-0.31641-0.64062-0.13672-0.18359-0.30469-0.33203-0.50391-0.4375-0.20312-0.11328-0.42969-0.16406-0.68359-0.16406-0.27344 0-0.50781 0.054688-0.70703 0.17188-0.19922 0.11328-0.36719 0.26562-0.5 0.45312-0.13672 0.1875-0.23828 0.40234-0.30469 0.64453-0.066406 0.23828-0.10547 0.48437-0.10547 0.73437" fill="#6f6c6d"/>
 <path d="m61.012 13.234v-6.6562h3c0.3125 0 0.60156 0.066406 0.86719 0.19531 0.26562 0.13281 0.49609 0.30469 0.69141 0.51562 0.19141 0.21094 0.34375 0.45313 0.45313 0.72266 0.10937 0.26562 0.16406 0.53906 0.16406 0.8125 0 0.20703-0.023438 0.40625-0.074219 0.59766s-0.12109 0.36719-0.21875 0.53906c-0.09375 0.16797-0.20703 0.32031-0.33984 0.45312s-0.28516 0.25-0.45313 0.34375l1.5273 2.4766h-1.7344l-1.3438-2.1484h-1v2.1484zm1.5391-3.4883h1.4062c0.17969 0 0.33594-0.085938 0.46875-0.25781 0.12891-0.17188 0.19531-0.39453 0.19531-0.66406 0-0.27344-0.074219-0.49219-0.22656-0.65234-0.14844-0.16406-0.30859-0.24609-0.48438-0.24609h-1.3594z" fill="#6f6c6d"/>
 <path d="m72.066 11.883v1.3516h-4.6797v-6.6562h4.5938v1.3477h-3.0547v1.293h2.625v1.25h-2.625v1.4141z" fill="#6f6c6d"/>
 <path d="m74.105 18.996h-14.938c0.96484 1.5703 1.5156 3.3828 1.5156 5.3164v17.277c0 1.9336-0.55078 3.7422-1.5117 5.3164h14.934z" fill="#f37115"/>
 <g clip-path="url(#r)">
  <use xlink:href="#h"/>
  <use xlink:href="#f"/>
  <use xlink:href="#d"/>
 </g>
 <path d="m48.961 50.395h-1.2188c-5.3477 0-9.6836-3.9453-9.6836-8.8047v-17.277c0-4.8633 4.3359-8.8047 9.6836-8.8047h1.2188c5.3477 0 9.6797 3.9414 9.6797 8.8047v17.277c0 4.8594-4.332 8.8047-9.6797 8.8047" fill="#fbc606"/>
 <path d="m41.133 32.387c0-5.2891 3.2891-8.5586 7.7383-8.5586 3.8711 0 5.5039 2.043 6.4414 4.207l-4.0117 1.5156c-0.48047-1.1289-1.2266-1.9492-2.6211-1.9492-2.0938 0-3.1992 1.875-3.1992 4.7617 0 3.1953 1.1562 4.7578 3.5117 4.7578 1.3945 0 2.4766-0.81641 3.2695-1.9922l3.1016 2.3281c-1.3711 2.1133-3.5586 3.4375-6.4922 3.4375-4.7109 0-7.7383-3.293-7.7383-8.5078" fill="#fff"/>
</svg>